<svg width="16" height="17" viewBox="0 0 16 17" fill="none" xmlns="http://www.w3.org/2000/svg">
<path d="M8.10666 16.8701C5.75999 16.8701 3.83999 16.0168 2.66666 14.5235C1.59999 13.1368 0.959991 11.2168 0.959991 8.87012C0.959991 6.52345 1.49332 4.60345 2.66666 3.21678C3.83999 1.72345 5.65332 0.870117 8.10666 0.870117C9.91999 0.870117 11.52 1.40345 12.6933 2.25678C13.76 3.11012 14.6133 4.39012 15.04 5.88345L13.6533 6.31012C12.9067 3.64345 11.0933 2.36345 8.10666 2.25678C6.18666 2.25678 4.69332 2.89678 3.73332 4.07012C2.87999 5.13678 2.34666 6.73678 2.34666 8.87012C2.34666 10.8968 2.77332 12.4968 3.73332 13.6701C4.69332 14.8435 6.18666 15.4835 8.10666 15.4835C9.81333 15.4835 10.9867 15.0568 11.9467 14.0968C13.0133 13.0301 13.0133 11.7501 12.6933 10.8968C12.48 10.4701 12.16 10.0435 11.6267 9.72345C11.52 10.5768 11.2 11.3235 10.7733 11.8568C10.1333 12.6035 9.38666 13.0301 8.31999 13.0301C7.46666 13.0301 6.71999 12.9235 6.18666 12.4968C5.43999 12.0701 5.01332 11.3235 5.01332 10.4701C5.01332 9.72345 5.33332 8.97678 5.86666 8.44345C6.50666 7.91012 7.25332 7.59012 8.21332 7.59012C8.95999 7.59012 9.59999 7.59012 10.24 7.59012C10.24 7.05678 10.0267 6.73678 9.70666 6.41678C9.38666 5.99012 8.85332 5.77678 8.10666 5.77678C7.57332 5.77678 6.82666 5.88345 6.29333 6.63012L5.11999 5.88345C5.75999 4.92345 6.82666 4.39012 8.10666 4.39012C10.24 4.39012 11.52 5.67012 11.6267 8.01678C11.6267 8.01678 11.7333 8.01678 11.84 8.01678C12.8 8.44345 13.5467 9.19012 13.9733 10.0435C14.5067 11.2168 14.5067 13.2435 12.9067 14.8435C11.6267 16.0168 10.1333 16.5501 8.10666 16.6568V16.8701ZM8.74666 9.08345C8.53332 9.08345 8.42666 9.08345 8.21332 9.08345C7.03999 9.08345 6.18666 9.72345 6.29333 10.4701C6.29333 11.3235 7.25332 11.6435 8.10666 11.6435C8.95999 11.6435 10.0267 11.3235 10.1333 9.19012C9.70666 9.19012 9.17333 9.08345 8.63999 9.08345H8.74666Z" fill="#127749"/>
</svg>
