<svg width="25" height="27" viewBox="0 0 25 27" fill="none" xmlns="http://www.w3.org/2000/svg">
<path d="M2.38676 9.06912C2.55623 9.06912 2.64097 9.06912 2.72571 8.98438L7.13214 23.729C7.64058 25.339 10.0133 26.6101 12.8944 26.6101C15.7755 26.6101 18.1482 25.339 18.6566 23.729L22.9783 8.98438C23.0631 8.98438 23.2326 8.98438 23.3173 8.98438C24.1647 8.98438 24.8426 8.30647 24.8426 7.45908C24.8426 6.61169 24.1647 5.93377 23.3173 5.93377C22.4699 5.93377 21.792 6.61169 21.792 7.45908C21.792 8.05225 22.1309 8.56068 22.6394 8.8149L17.6398 19.5768L18.4872 5.08638C19.3346 5.08638 20.0125 4.40847 20.0125 3.56108C20.0125 2.71369 19.3346 2.03578 18.4872 2.03578C17.6398 2.03578 16.9619 2.71369 16.9619 3.56108C16.9619 4.23899 17.4703 4.83217 18.0635 5.00164L14.7587 19.1531L13.0639 3.64582C13.8265 3.56108 14.335 2.88317 14.335 2.12052C14.335 1.27313 13.657 0.595215 12.8097 0.595215C11.9623 0.595215 11.2844 1.27313 11.2844 2.12052C11.2844 2.88317 11.8775 3.56108 12.5554 3.64582L10.9454 19.2378L7.72531 5.08638C8.40323 4.91691 8.82692 4.32373 8.82692 3.64582C8.82692 2.79843 8.14901 2.12052 7.30162 2.12052C6.45423 2.12052 5.77632 2.79843 5.77632 3.64582C5.77632 4.49321 6.45423 5.17112 7.30162 5.17112L8.14901 19.6615L3.14941 8.89964C3.65784 8.64542 3.9968 8.13699 3.9968 7.54382C3.9968 6.69642 3.31888 6.01851 2.47149 6.01851C1.6241 6.01851 0.946193 6.69642 0.946193 7.54382C0.861454 8.39121 1.53937 9.06912 2.38676 9.06912ZM12.8944 22.4579C15.5213 22.4579 17.6398 23.1358 17.6398 23.9832C17.6398 24.8306 15.5213 25.5085 12.8944 25.5085C10.2675 25.5085 8.14901 24.8306 8.14901 23.9832C8.06427 23.1358 10.2675 22.4579 12.8944 22.4579Z" fill="#A37E2C"/>
</svg>
