<svg width="37" height="40" viewBox="0 0 37 40" fill="none" xmlns="http://www.w3.org/2000/svg">
<path d="M33.7184 9.53783C33.7184 9.53783 32.0859 9.68332 31.7788 11.6959C31.7788 11.6959 31.7788 12.7467 32.2556 13.4418L32.4334 13.6924C32.4334 13.6924 32.5142 13.8056 32.3849 14.1046L26.4289 27.9424L26.2349 28.2738C26.2349 28.2738 26.0248 28.6052 25.4591 28.387C25.4591 28.387 24.9661 28.193 25.0793 27.3039L26.7117 15.4545L27.7623 8.36582C27.7623 8.36582 27.8189 8.091 28.0371 8.02634C28.0937 8.01017 28.2796 7.89701 28.3361 7.86468C28.6836 7.65453 29.5807 6.99174 29.6211 5.70657C29.6211 5.70657 29.8635 4.34057 28.6836 3.48379C27.8432 2.86949 26.7117 2.79675 25.8228 3.33021C25.3056 3.63736 24.8288 4.17083 24.7156 5.10844C24.7156 5.10844 24.4651 6.17537 25.0793 7.08065C25.0793 7.08065 25.5076 7.58987 25.6207 7.67069C25.6207 7.67069 25.7501 7.78385 25.7177 7.92126L22.1457 24.7012C22.1457 24.7012 21.8952 25.7197 21.0628 25.7358C21.0628 25.7358 20.489 25.849 20.3759 24.879L19.8829 14.3794L19.4384 5.31859C19.4384 5.31859 19.4869 4.87404 19.8183 4.68005C19.8183 4.68005 21.0709 3.72627 20.6911 2.19862C20.6911 2.19862 20.384 -0.0888223 17.7009 0.388065C17.7009 0.388065 15.7048 0.8892 16.2786 3.58887C16.2786 3.58887 16.5533 4.1385 17.1918 4.68813C17.1918 4.68813 17.5797 4.99528 17.5797 5.58532L16.8928 24.685C16.8928 24.685 16.9574 25.8005 15.9068 25.8732C15.9068 25.8732 15.2845 25.9379 14.9047 23.998L11.2276 8.34965C11.2276 8.34965 11.0256 7.44437 11.4701 7.04832C11.4701 7.04832 12.8924 5.19735 11.2761 3.45954C11.2761 3.45954 9.92653 2.14204 8.14861 3.36255C8.14861 3.36255 6.87982 4.15466 7.38895 6.24003C7.38895 6.24003 7.51017 7.1049 8.61733 7.70303C8.61733 7.70303 9.25577 7.91318 9.30426 8.47089L11.559 23.513C11.559 23.513 12.0196 26.9482 11.9065 27.6272C11.9065 27.6272 11.9711 28.2334 11.3165 28.4193C11.3165 28.4193 10.8236 28.5325 10.2821 27.1665L4.69782 14.4037C4.69782 14.4037 4.35032 13.5307 4.69782 13.1347C4.69782 13.1347 6.0151 11.0251 4.00281 9.79648C4.00281 9.79648 2.55623 8.81037 1.07732 10.0955C1.07732 10.0955 -0.555138 11.5747 1.07732 13.4338C1.07732 13.4338 1.45715 13.943 2.37844 14.1774C2.37844 14.1774 2.9199 14.1935 3.00071 14.7836L7.73645 28.5406L10.371 36.2597C10.371 36.2597 10.6296 37.1973 10.7832 37.3266C10.7832 37.3266 11.2115 37.7873 12.6581 38.248C12.6581 38.248 16.0442 39.9293 20.3274 39.412C20.3274 39.412 23.1721 39.1452 25.7743 37.9005L26.1865 37.6661C26.1865 37.6661 26.3966 37.5852 26.5663 36.9063L29.2332 28.977L32.1263 20.87L33.8234 15.899L34.1709 15.0422C34.1709 15.0422 34.3649 14.5168 34.9468 14.3875C34.9468 14.3875 36.7409 14.0561 36.7247 11.8576C36.7409 11.8576 36.5954 9.1741 33.7184 9.53783ZM20.788 36.68C20.788 36.68 16.3109 37.4236 13.7329 35.7747C13.7329 35.7747 12.5126 35.1361 12.9086 33.5357C12.9086 33.5357 13.1995 32.784 14.3067 32.388C14.3067 32.388 16.1169 31.3372 20.6102 31.7656C20.6102 31.7656 24.2146 32.1778 24.2307 34.0692C24.2388 34.0773 24.8692 36.0576 20.788 36.68Z" fill="url(#paint0_linear_10_396)" stroke="url(#paint1_linear_10_396)" stroke-width="0.0808283" stroke-miterlimit="10"/>
<defs>
<linearGradient id="paint0_linear_10_396" x1="8.99926" y1="16.7256" x2="33.0843" y2="25.1964" gradientUnits="userSpaceOnUse">
<stop offset="0.12" stop-color="#F3DFBD"/>
<stop offset="0.257" stop-color="#F0DBB9"/>
<stop offset="0.382" stop-color="#E7CFAC"/>
<stop offset="0.503" stop-color="#D9BA96"/>
<stop offset="0.62" stop-color="#C69F7A"/>
<stop offset="0.691" stop-color="#B98B67"/>
</linearGradient>
<linearGradient id="paint1_linear_10_396" x1="-0.587625" y1="16.5957" x2="34.8536" y2="22.9209" gradientUnits="userSpaceOnUse">
<stop stop-color="#E8C798"/>
<stop offset="0.139" stop-color="#E8C89B"/>
<stop offset="0.241" stop-color="#EBCDA4"/>
<stop offset="0.316" stop-color="#EDD3B0"/>
<stop offset="0.399" stop-color="#ECD0A9"/>
<stop offset="0.482" stop-color="#E9CA9D"/>
<stop offset="0.714" stop-color="#E7C89A"/>
<stop offset="0.749" stop-color="#EFD8B7"/>
<stop offset="0.784" stop-color="#F5E5CF"/>
<stop offset="0.821" stop-color="#FAEFE0"/>
<stop offset="0.86" stop-color="#FDF5EA"/>
<stop offset="0.901" stop-color="#FEF7EE"/>
</linearGradient>
</defs>
</svg>
