<svg width="34" height="37" viewBox="0 0 34 37" fill="none" xmlns="http://www.w3.org/2000/svg">
<path d="M7.79685 26.685C7.79685 26.685 6.87556 24.9472 6.38259 23.6944L4.17635 18.7234L2.17214 13.995C2.17214 13.995 1.36399 12.2652 1.19428 11.659C1.19428 11.659 1.08922 11.263 1.39632 10.681C1.39632 10.681 2.13173 9.67874 1.64685 8.9917C1.64685 8.9917 1.77615 9.49283 1.42056 10.0263C1.42056 10.0263 0.838699 10.9316 0.814455 11.2791C0.814455 11.2791 0.782129 11.853 1.24277 12.5562C1.24277 12.5562 1.81656 13.5423 1.93778 13.8656C1.93778 13.8656 6.61695 24.6481 6.6412 24.7128C6.66544 24.7694 7.37661 26.4344 7.79685 26.685ZM8.27365 9.89698C8.27365 9.89698 10.3587 18.0849 10.488 18.4082C10.488 18.4082 11.579 22.7325 11.7891 23.2013C11.7891 23.2013 12.1447 23.6378 12.5003 23.8479C12.5003 23.8479 12.1043 23.3549 11.9346 22.587L10.6334 17.0179L8.87168 10.0263C8.87168 10.0263 7.99888 6.68001 7.97464 5.96872C7.97464 5.96872 7.91807 5.60499 8.20092 5.16044L8.57267 4.68355C8.61308 4.63505 8.6454 4.58656 8.66965 4.52998C8.75046 4.38448 8.91209 4.08542 8.96866 3.84294C8.96866 3.84294 9.13029 2.70326 8.45953 2.70326C8.45953 2.70326 8.43528 3.32563 8.08778 3.8591C8.08778 3.8591 7.58673 4.63505 7.36853 5.09577C7.2958 5.25743 7.26347 5.42717 7.27155 5.60499C7.28771 5.83131 7.39277 6.0738 7.46551 6.47794C7.47359 6.47794 8.10394 8.81388 8.27365 9.89698ZM15.547 4.3764L15.8137 10.778L16.1773 18.2627L16.638 22.9022C16.735 23.9045 17.3087 23.7833 17.3087 23.7833C16.7754 23.557 16.8239 21.9485 16.8239 21.9485L16.347 13.0816L15.8622 3.38221C15.8622 3.30139 15.8622 3.22864 15.8783 3.14781C15.9672 2.65476 16.145 2.46885 16.145 2.46885C16.6299 1.61207 17.0259 1.57166 17.1552 1.58783C17.2441 1.59591 17.5431 1.64441 17.5916 1.56358C17.6805 1.42617 17.7128 0.900785 17.7128 0.900785C17.5997 0.391567 17.236 0.270325 17.236 0.270325C17.2683 0.383484 16.7592 0.957365 16.7592 0.957365L15.7894 2.0728C15.5227 2.42036 15.5389 2.88108 15.5389 2.88108L15.547 4.3764Z" fill="#140A06"/>
<path d="M16.339 3.34179C16.3066 3.39029 16.2905 3.43879 16.2743 3.49537C16.2501 3.62469 16.2016 3.89143 16.2258 4.10158L16.6703 13.7929L17.1794 23.3549C17.1794 23.3549 17.236 23.7186 17.7209 23.856C17.7209 23.856 17.2441 23.6459 17.2926 22.5628L16.8723 13.1705L16.4117 4.15008C16.4117 4.15008 16.3228 3.55195 16.5168 3.07506L16.339 3.34179ZM22.392 26.5476C22.392 26.5476 21.996 26.3132 21.996 25.6989L22.489 18.8366L23.5234 11.1175L24.0972 6.28394C24.0972 6.28394 24.0406 5.86364 24.4124 5.52416C24.4608 5.47566 24.7114 5.16043 24.7518 5.11193C24.8892 4.92603 25.1478 4.82903 25.5357 4.49764L26.0933 4.12583C26.2145 4.06925 26.4085 4.35215 26.4085 4.22282C26.4166 3.97225 26.3196 3.63278 26.1418 3.39837L25.8509 2.93765C25.8509 2.93765 24.9538 3.60044 24.7033 3.79443C24.7033 3.79443 23.7012 4.76437 23.4668 5.6454C23.4668 5.6454 23.3052 6.63151 23.2486 7.27813L22.1576 15.5307C22.1576 15.5307 20.8727 24.1551 21.1636 25.8282C21.1636 25.8282 21.4222 27.1781 22.392 26.5476Z" fill="#140A06"/>
<path d="M33.1242 9.509C33.1242 9.509 32.7282 8.9432 32.2029 8.78155C32.1221 8.7573 32.0332 8.78155 31.9766 8.83004C31.8392 8.9432 31.5968 9.14527 31.4271 9.28268C31.3624 9.33118 31.2897 9.37968 31.2169 9.42009C30.9907 9.53325 30.3442 9.92931 29.8027 10.8669C29.7704 10.9154 29.7542 10.972 29.7461 11.0367C29.73 11.2145 29.6896 11.6105 29.6815 11.8207C29.6815 11.8773 29.6815 11.9258 29.6976 11.9823C29.7219 12.0793 29.7461 12.3137 29.5926 12.5966L26.0044 21.0674L23.8305 26.3213C23.8305 26.3213 23.2405 27.76 22.1091 28.7461C22.1091 28.7461 21.6566 29.126 20.4201 28.8916C20.4201 28.8916 15.5389 28.1238 12.9367 28.4956C12.9367 28.4956 10.1405 28.6896 9.36465 30.6456C9.36465 30.6456 8.84744 31.7045 9.23535 33.2483C9.23535 33.2483 9.50204 34.5739 9.4293 35.0588C9.4293 35.0588 9.69599 35.6489 10.1647 35.8994L10.3425 36.0449C10.3425 36.0449 9.10604 35.9884 7.63522 34.881C7.63522 34.881 8.15243 35.6731 9.41314 36.0288C9.41314 36.0288 11.3527 36.7805 12.4599 36.9583C12.4599 36.9583 10.2859 35.9883 9.88995 35.269C9.88995 35.269 9.88995 35.0912 10.1243 35.1397C10.1243 35.1397 10.892 35.5034 13.8014 35.5438C13.8014 35.5438 16.6218 35.5923 18.6179 34.9861C18.6179 34.9861 21.4303 34.3556 21.8828 32.2379C21.8828 32.2379 22.6748 29.2796 23.4426 28.0348C23.4426 28.0348 25.3983 23.8156 26.1014 21.9889L28.9218 14.9245C28.9218 14.9245 29.7461 12.7421 29.8189 12.5805C29.8189 12.5805 30.0532 11.651 30.425 11.1417C30.425 11.1417 30.9341 10.4304 31.2735 10.1395C31.3624 10.0667 31.4594 10.0101 31.5725 9.99397C31.7018 9.96972 31.912 9.94547 32.0898 10.0344C32.0898 10.0344 33.0191 10.4143 33.3666 10.3739C33.3747 10.3819 33.5767 10.188 33.1242 9.509ZM21.3576 32.3996C21.3576 32.3996 21.398 33.5877 19.717 34.2829C19.717 34.2829 18.028 35.4387 13.47 34.9861C13.47 34.9861 10.1001 35.0022 9.62326 33.2483C9.62326 33.2483 9.29563 32.1868 10.0475 30.9511C10.0475 30.9511 11.0264 29.6773 14.4368 29.5318C14.4368 29.5318 18.6629 29.3277 20.6915 30.8069C20.6915 30.8068 21.5043 31.4047 21.3576 32.3996Z" fill="#140A06"/>
<path d="M20.5332 30.6699C19.7978 30.096 19.0686 29.7385 19.0686 29.7385C16.5714 29.2536 14.152 29.3897 14.152 29.3897C10.5235 29.6403 9.84954 31.2195 9.84954 31.2195L9.91209 30.7741C9.63716 30.9104 9.71684 31.8276 9.81002 31.9633C9.92526 31.6426 9.867 31.5326 10.1599 31.2459C10.6953 30.7218 11.1081 30.6295 11.3555 30.525C11.9114 30.2902 12.4963 30.1397 13.0178 30.0432C13.9492 29.8709 14.6783 29.8709 14.6783 29.8709C16.3054 29.8318 17.2313 29.9173 17.6778 29.9761C17.9063 30.0062 18.6531 30.1895 18.7491 30.2167C21.6659 31.0438 21.166 32.5551 21.166 32.5551C21.4667 31.1041 20.5332 30.6699 20.5332 30.6699Z" fill="#140A06"/>
</svg>
