<svg width="18" height="18" viewBox="0 0 18 18" fill="none" xmlns="http://www.w3.org/2000/svg">
<path d="M9.00003 17.77L1.56003 10.33C-0.479971 8.29002 -0.479971 4.93002 1.56003 2.89002C2.52003 1.93002 3.84003 1.33002 5.28003 1.33002C6.72003 1.33002 7.92003 1.93002 9.00003 2.89002V3.01002C9.96003 2.05002 11.28 1.45002 12.72 1.45002C14.16 1.45002 15.36 2.05002 16.44 3.01002C18.48 5.05002 18.48 8.41002 16.44 10.45L9.00003 17.77ZM5.28003 3.85002C4.56003 3.85002 3.84003 4.09002 3.36003 4.69002C2.28003 5.77002 2.28003 7.57002 3.36003 8.65002L9.00003 14.41L14.64 8.65002C15.72 7.57002 15.72 5.77002 14.64 4.69002C13.68 3.61002 11.76 3.61002 10.8 4.69002L9.00003 6.49002L7.20003 4.69002C6.72003 4.09002 6.00003 3.85002 5.28003 3.85002Z" fill="white"/>
</svg>
