<svg width="26" height="27" viewBox="0 0 26 27" fill="none" xmlns="http://www.w3.org/2000/svg">
<path d="M0.711304 0.230652C0.711304 0.230652 1.06689 0.853029 1.82655 1.15209C1.82655 1.15209 2.12556 1.27334 2.41649 1.34608C2.41649 1.34608 2.74783 1.3865 2.90138 1.63706L4.23483 5.3875L6.13397 10.8757L9.85145 21.6744L10.5303 23.6224L10.7 24.1558C10.7 24.1558 10.7889 24.4387 10.9909 24.5276C10.9909 24.5276 12.2921 25.3925 14.3609 25.926C14.3609 25.926 15.8641 26.5241 18.4501 26.6211C18.4501 26.6211 21.3675 26.71 23.3152 25.8936C23.3152 25.8936 24.7456 25.3521 25.384 24.9964C25.384 24.9964 24.8749 25.4814 22.6202 26.2493C22.6202 26.2493 20.1149 27.0091 17.1813 26.7262C17.1813 26.7262 13.8599 26.3382 10.902 24.7297C10.902 24.7297 10.6677 24.6893 10.4333 23.9133L9.21301 20.3003L8.05736 16.8489L6.14205 11.296L4.45303 6.34127L2.90946 1.89571C2.90946 1.89571 2.79632 1.5239 2.46498 1.49966C2.43266 1.49966 2.40841 1.49157 2.37609 1.49157C2.13364 1.42691 0.986074 1.1036 0.711304 0.230652Z" fill="#7B4F36"/>
</svg>
