<svg width="25" height="27" viewBox="0 0 25 27" fill="none" xmlns="http://www.w3.org/2000/svg">
<path d="M2.38676 9.06863C2.55623 9.06863 2.64097 9.06863 2.72571 8.98389L7.13214 23.7285C7.64058 25.3385 10.0133 26.6096 12.8944 26.6096C15.7755 26.6096 18.1482 25.3385 18.6566 23.7285L22.9783 8.98389C23.0631 8.98389 23.2326 8.98389 23.3173 8.98389C24.1647 8.98389 24.8426 8.30598 24.8426 7.45859C24.8426 6.6112 24.1647 5.93329 23.3173 5.93329C22.4699 5.93329 21.792 6.6112 21.792 7.45859C21.792 8.05176 22.1309 8.5602 22.6394 8.81441L17.6398 19.5763L18.4872 5.0859C19.3346 5.0859 20.0125 4.40798 20.0125 3.56059C20.0125 2.7132 19.3346 2.03529 18.4872 2.03529C17.6398 2.03529 16.9619 2.7132 16.9619 3.56059C16.9619 4.2385 17.4703 4.83168 18.0635 5.00116L14.7587 19.1526L13.0639 3.64533C13.8265 3.56059 14.335 2.88268 14.335 2.12003C14.335 1.27264 13.657 0.594727 12.8097 0.594727C11.9623 0.594727 11.2844 1.27264 11.2844 2.12003C11.2844 2.88268 11.8775 3.56059 12.5554 3.64533L10.9454 19.2373L7.72531 5.0859C8.40323 4.91642 8.82692 4.32324 8.82692 3.64533C8.82692 2.79794 8.14901 2.12003 7.30162 2.12003C6.45423 2.12003 5.77632 2.79794 5.77632 3.64533C5.77632 4.49272 6.45423 5.17063 7.30162 5.17063L8.14901 19.661L3.14941 8.89915C3.65784 8.64493 3.9968 8.1365 3.9968 7.54333C3.9968 6.69594 3.31888 6.01802 2.47149 6.01802C1.6241 6.01802 0.946193 6.69594 0.946193 7.54333C0.861454 8.39072 1.53937 9.06863 2.38676 9.06863ZM12.8944 22.4574C15.5213 22.4574 17.6398 23.1353 17.6398 23.9827C17.6398 24.8301 15.5213 25.508 12.8944 25.508C10.2675 25.508 8.14901 24.8301 8.14901 23.9827C8.06427 23.1353 10.2675 22.4574 12.8944 22.4574Z" fill="#A37E2C"/>
</svg>
