<svg width="37" height="40" viewBox="0 0 37 40" fill="none" xmlns="http://www.w3.org/2000/svg">
<path d="M33.6513 9.68227C33.6513 9.68227 32.0188 9.82776 31.7117 11.8404C31.7117 11.8404 31.7117 12.8912 32.1885 13.5863L32.3663 13.8368C32.3663 13.8368 32.4472 13.95 32.3179 14.2491L26.3618 28.0869L26.1679 28.4183C26.1679 28.4183 25.9577 28.7497 25.392 28.5314C25.392 28.5314 24.8991 28.3374 25.0122 27.4483L26.6447 15.5989L27.6953 8.51026C27.6953 8.51026 27.7518 8.23545 27.97 8.17078C28.0266 8.15462 28.0832 8.13037 28.1397 8.08996C28.4872 7.8798 29.5055 7.13618 29.554 5.85101C29.554 5.85101 29.7964 4.48501 28.6165 3.62823C27.7761 3.01394 26.6447 2.94119 25.7557 3.47466C25.2385 3.78181 24.7617 4.31528 24.6485 5.25288C24.6485 5.25288 24.398 6.31982 25.0122 7.22509C25.0122 7.22509 25.4405 7.73431 25.5537 7.81514C25.5537 7.81514 25.683 7.9283 25.6506 8.06571L22.0786 24.8457C22.0786 24.8457 21.8281 25.8641 20.9957 25.8803C20.9957 25.8803 20.4219 25.9934 20.3088 25.0235L19.8158 14.5239L19.3713 5.46304C19.3713 5.46304 19.4198 5.01848 19.7512 4.82449C19.7512 4.82449 21.0038 3.87072 20.624 2.34306C20.624 2.34306 20.2441 -0.0252041 17.5611 0.451683C17.5611 0.451683 15.573 1.04173 16.1468 3.74139C16.1468 3.74139 16.3408 4.50118 17.0681 4.94574C17.0681 4.94574 17.5126 5.13972 17.5126 5.72169L16.8257 24.8214C16.8257 24.8214 16.8903 25.9368 15.8397 26.0096C15.8397 26.0096 15.2175 26.0743 14.8376 24.1344L11.1606 8.4941C11.1606 8.4941 10.9585 7.58882 11.403 7.19276C11.403 7.19276 12.8253 5.34179 11.209 3.60399C11.209 3.60399 9.85944 2.28648 8.08152 3.50699C8.08152 3.50699 6.81273 4.29911 7.32186 6.38448C7.32186 6.38448 7.44308 7.24934 8.55024 7.84747C8.55024 7.84747 9.18868 8.05763 9.23717 8.61534L11.4919 23.6575C11.4919 23.6575 11.9525 27.0927 11.8394 27.7716C11.8394 27.7716 11.9041 28.3779 11.2495 28.5638C11.2495 28.5638 10.7565 28.6769 10.215 27.3109L4.63073 14.5481C4.63073 14.5481 4.28323 13.6752 4.63073 13.2791C4.63073 13.2791 5.94801 11.1695 3.93572 9.94092C3.93572 9.94092 2.48914 8.95482 1.01023 10.24C1.01023 10.24 -0.622225 11.7191 1.01023 13.5782C1.01023 13.5782 1.39006 14.0874 2.31135 14.3218C2.31135 14.3218 2.85281 14.338 2.93362 14.928L7.66936 28.685L10.3039 36.4041C10.3039 36.4041 10.5625 37.3417 10.7161 37.471C10.7161 37.471 11.1444 37.9318 12.591 38.3925C12.591 38.3925 15.9771 40.0737 20.2603 39.5564C20.2603 39.5564 23.105 39.2897 25.7072 38.0449L26.1194 37.8105C26.1194 37.8105 26.3295 37.7297 26.4992 37.0507L29.1661 29.1215L32.0592 21.0144L33.7564 16.0435L34.1039 15.1867C34.1039 15.1867 34.2978 14.6613 34.8797 14.532C34.8797 14.532 36.6738 14.2006 36.6576 12.002C36.6738 12.002 36.5283 9.31855 33.6513 9.68227ZM20.7209 36.8244C20.7209 36.8244 16.2438 37.568 13.6658 35.9191C13.6658 35.9191 12.4455 35.2806 12.8415 33.6802C12.8415 33.6802 13.1324 32.9285 14.2396 32.5324C14.2396 32.5324 16.0499 31.4817 20.5431 31.9101C20.5431 31.9101 24.1475 32.3223 24.1636 34.2137C24.1717 34.2217 24.8021 36.202 20.7209 36.8244Z" fill="url(#paint0_linear_13_712)" stroke="url(#paint1_linear_13_712)" stroke-width="0.0808283" stroke-miterlimit="10"/>
<defs>
<linearGradient id="paint0_linear_13_712" x1="18.5855" y1="9.58383" x2="16.9688" y2="43.4736" gradientUnits="userSpaceOnUse">
<stop offset="0.581" stop-color="#FCFBE9" stop-opacity="0"/>
<stop offset="0.628" stop-color="#EEE6D0" stop-opacity="0.181"/>
<stop offset="0.725" stop-color="#CCB592" stop-opacity="0.554"/>
<stop offset="0.842" stop-color="#A37B4C"/>
<stop offset="0.843" stop-color="#9E764B"/>
<stop offset="0.858" stop-color="#6E543E"/>
<stop offset="0.873" stop-color="#4A3A31"/>
<stop offset="0.889" stop-color="#2F2624"/>
<stop offset="0.904" stop-color="#1C1718"/>
<stop offset="0.92" stop-color="#0F0C0D"/>
<stop offset="0.937" stop-color="#070506"/>
<stop offset="0.955" stop-color="#050304"/>
</linearGradient>
<linearGradient id="paint1_linear_13_712" x1="-0.649298" y1="16.7099" x2="34.7919" y2="23.0352" gradientUnits="userSpaceOnUse">
<stop stop-color="#E8C798"/>
<stop offset="0.102" stop-color="#E8C89B"/>
<stop offset="0.178" stop-color="#EBCDA4"/>
<stop offset="0.234" stop-color="#EDD3B0"/>
<stop offset="0.357" stop-color="#ECD0A9"/>
<stop offset="0.482" stop-color="#E9CA9D"/>
<stop offset="0.796" stop-color="#E7C89A"/>
<stop offset="0.888" stop-color="#967456"/>
<stop offset="0.964" stop-color="#62432F"/>
<stop offset="1" stop-color="#503322"/>
</linearGradient>
</defs>
</svg>
