<svg width="26" height="27" viewBox="0 0 26 27" fill="none" xmlns="http://www.w3.org/2000/svg">
<path d="M0.711289 0.230621C0.711289 0.230621 1.06687 0.852999 1.82653 1.15206C1.82653 1.15206 2.12555 1.27331 2.41648 1.34605C2.41648 1.34605 2.74782 1.38647 2.90137 1.63703L4.23481 5.38747L6.13396 10.8757L9.85143 21.6744L10.5303 23.6223L10.7 24.1558C10.7 24.1558 10.7889 24.4387 10.9909 24.5276C10.9909 24.5276 12.292 25.3925 14.3609 25.9259C14.3609 25.9259 15.864 26.5241 18.4501 26.6211C18.4501 26.6211 21.3675 26.71 23.3152 25.8936C23.3152 25.8936 24.7456 25.3521 25.384 24.9964C25.384 24.9964 24.8749 25.4814 22.6202 26.2492C22.6202 26.2492 20.1149 27.009 17.1813 26.7261C17.1813 26.7261 13.8598 26.3382 10.902 24.7297C10.902 24.7297 10.6677 24.6893 10.4333 23.9133L9.213 20.3003L8.05735 16.8489L6.14204 11.296L4.45301 6.34124L2.90945 1.89568C2.90945 1.89568 2.79631 1.52387 2.46497 1.49963C2.43264 1.49963 2.4084 1.49154 2.37607 1.49154C2.13363 1.42688 0.986059 1.10357 0.711289 0.230621Z" fill="#7B4F36"/>
</svg>
