<svg width="17" height="17" viewBox="0 0 17 17" fill="none" xmlns="http://www.w3.org/2000/svg">
<path d="M8.85669 16.8701C6.51002 16.8701 4.59002 16.0168 3.41669 14.5235C2.35002 13.1368 1.71002 11.2168 1.71002 8.87012C1.71002 6.52345 2.24336 4.60345 3.41669 3.21678C4.59002 1.72345 6.40336 0.870117 8.85669 0.870117C10.67 0.870117 12.27 1.40345 13.4434 2.25678C14.51 3.11012 15.3634 4.39012 15.79 5.88345L14.4034 6.31012C13.6567 3.64345 11.8434 2.36345 8.85669 2.25678C6.93669 2.25678 5.44336 2.89678 4.48336 4.07012C3.63002 5.13678 3.09669 6.73678 3.09669 8.87012C3.09669 10.8968 3.52336 12.4968 4.48336 13.6701C5.44336 14.8435 6.93669 15.4835 8.85669 15.4835C10.5634 15.4835 11.7367 15.0568 12.6967 14.0968C13.7634 13.0301 13.7634 11.7501 13.4434 10.8968C13.23 10.4701 12.91 10.0435 12.3767 9.72345C12.27 10.5768 11.95 11.3235 11.5234 11.8568C10.8834 12.6035 10.1367 13.0301 9.07002 13.0301C8.21669 13.0301 7.47002 12.9235 6.93669 12.4968C6.19002 12.0701 5.76336 11.3235 5.76336 10.4701C5.76336 9.72345 6.08336 8.97678 6.61669 8.44345C7.25669 7.91012 8.00336 7.59012 8.96336 7.59012C9.71002 7.59012 10.35 7.59012 10.99 7.59012C10.99 7.05678 10.7767 6.73678 10.4567 6.41678C10.1367 5.99012 9.60336 5.77678 8.85669 5.77678C8.32336 5.77678 7.57669 5.88345 7.04336 6.63012L5.87002 5.88345C6.51002 4.92345 7.57669 4.39012 8.85669 4.39012C10.99 4.39012 12.27 5.67012 12.3767 8.01678C12.3767 8.01678 12.4834 8.01678 12.59 8.01678C13.55 8.44345 14.2967 9.19012 14.7234 10.0435C15.2567 11.2168 15.2567 13.2435 13.6567 14.8435C12.3767 16.0168 10.8834 16.5501 8.85669 16.6568V16.8701ZM9.49669 9.08345C9.28336 9.08345 9.17669 9.08345 8.96336 9.08345C7.79002 9.08345 6.93669 9.72345 7.04336 10.4701C7.04336 11.3235 8.00336 11.6435 8.85669 11.6435C9.71002 11.6435 10.7767 11.3235 10.8834 9.19012C10.4567 9.19012 9.92336 9.08345 9.39002 9.08345H9.49669Z" fill="#127749"/>
</svg>
