<svg width="16" height="17" viewBox="0 0 16 17" fill="none" xmlns="http://www.w3.org/2000/svg">
<path d="M14.4 6.67598C14.4 10.068 12.224 12.8093 9.20531 12.8093C8.19198 12.8093 7.23198 12.2866 6.91198 11.6786C6.91198 11.6786 6.41064 13.556 6.28264 14.0253C6.07998 14.7826 5.58931 15.7 5.19464 16.3506C5.16264 16.404 5.13064 16.468 5.08798 16.5213C5.06664 16.5533 5.04531 16.5746 5.03464 16.6066C4.90664 16.7666 4.76798 16.916 4.61864 16.98C4.61864 16.98 4.44798 16.8413 4.35198 16.3613C4.35198 16.3293 4.33064 16.2866 4.33064 16.2546C4.31998 16.1586 4.30931 16.052 4.29864 15.9346C4.29864 15.9346 4.29864 15.9346 4.29864 15.924C4.23464 15.1773 4.21331 14.2386 4.37331 13.5346C4.55464 12.7666 5.54664 8.63865 5.54664 8.63865C5.54664 8.63865 5.25864 8.04131 5.25864 7.16665C5.25864 5.79065 6.06931 4.77731 7.07198 4.77731C7.92531 4.77731 8.34131 5.40665 8.34131 6.16398C8.34131 7.00665 7.79731 8.27598 7.50931 9.44931C7.27464 10.4306 8.01064 11.2306 8.99198 11.2306C10.7733 11.2306 12.1386 9.38531 12.1386 6.71865C12.1386 4.36131 10.4106 2.70798 7.95731 2.70798C5.10931 2.70798 3.43464 4.80931 3.43464 6.98531C3.43464 7.82798 3.76531 8.74531 4.18131 9.23598C4.25598 9.33198 4.26664 9.41731 4.24531 9.51331C4.17064 9.82265 3.99998 10.4946 3.96798 10.6333C3.92531 10.8146 3.82931 10.8466 3.63731 10.7613C2.37864 10.1853 1.59998 8.39331 1.59998 6.94265C1.59998 3.83865 3.89331 0.97998 8.22398 0.97998C11.7013 0.97998 14.4 3.41198 14.4 6.67598Z" fill="#127749"/>
</svg>
