<svg width="18" height="18" viewBox="0 0 18 18" fill="none" xmlns="http://www.w3.org/2000/svg">
<path d="M17.76 16.08L12.96 11.28C13.8 10.08 14.28 8.75999 14.28 7.19999C14.28 3.35999 11.16 0.23999 7.32001 0.23999C3.36001 0.23999 0.240005 3.35999 0.240005 7.19999C0.240005 11.04 3.36001 14.16 7.20001 14.16C8.76001 14.16 10.08 13.68 11.28 12.84L16.08 17.64L17.76 16.08ZM7.20001 11.88C4.68001 11.88 2.52001 9.83999 2.52001 7.19999C2.52001 4.67999 4.68001 2.51999 7.20001 2.51999C9.72001 2.51999 11.88 4.67999 11.88 7.19999C11.88 9.83999 9.84001 11.88 7.20001 11.88Z" fill="white"/>
</svg>
