<svg width="37" height="40" viewBox="0 0 37 40" fill="none" xmlns="http://www.w3.org/2000/svg">
<path d="M33.7184 9.53786C33.7184 9.53786 32.0859 9.68335 31.7788 11.696C31.7788 11.696 31.7788 12.7467 32.2556 13.4419L32.4334 13.6924C32.4334 13.6924 32.5142 13.8056 32.3849 14.1047L26.4289 27.9425L26.2349 28.2739C26.2349 28.2739 26.0248 28.6053 25.4591 28.387C25.4591 28.387 24.9661 28.193 25.0793 27.3039L26.7117 15.4545L27.7623 8.36585C27.7623 8.36585 27.8189 8.09103 28.0371 8.02637C28.0937 8.0102 28.2795 7.89704 28.3361 7.86471C28.6836 7.65456 29.5807 6.99177 29.6211 5.7066C29.6211 5.7066 29.8635 4.3406 28.6836 3.48382C27.8431 2.86952 26.7117 2.79678 25.8228 3.33025C25.3056 3.63739 24.8288 4.17086 24.7156 5.10847C24.7156 5.10847 24.4651 6.1754 25.0793 7.08068C25.0793 7.08068 25.5076 7.5899 25.6207 7.67072C25.6207 7.67072 25.75 7.78388 25.7177 7.92129L22.1457 24.7012C22.1457 24.7012 21.8952 25.7197 21.0628 25.7358C21.0628 25.7358 20.489 25.849 20.3759 24.8791L19.8829 14.3795L19.4384 5.31862C19.4384 5.31862 19.4869 4.87407 19.8182 4.68008C19.8182 4.68008 21.0709 3.7263 20.691 2.19865C20.691 2.19865 20.3839 -0.0887917 17.7009 0.388095C17.7009 0.388095 15.7048 0.889231 16.2786 3.5889C16.2786 3.5889 16.5533 4.13853 17.1918 4.68816C17.1918 4.68816 17.5797 4.99531 17.5797 5.58535L16.8928 24.6851C16.8928 24.6851 16.9574 25.8005 15.9068 25.8733C15.9068 25.8733 15.2845 25.9379 14.9047 23.998L11.2276 8.34968C11.2276 8.34968 11.0256 7.44441 11.4701 7.04835C11.4701 7.04835 12.8924 5.19738 11.2761 3.45957C11.2761 3.45957 9.92653 2.14207 8.1486 3.36258C8.1486 3.36258 6.87981 4.15469 7.38894 6.24006C7.38894 6.24006 7.51016 7.10493 8.61733 7.70306C8.61733 7.70306 9.25576 7.91321 9.30425 8.47092L11.559 23.5131C11.559 23.5131 12.0196 26.9483 11.9065 27.6272C11.9065 27.6272 11.9711 28.2334 11.3165 28.4193C11.3165 28.4193 10.8236 28.5325 10.2821 27.1665L4.69781 14.4037C4.69781 14.4037 4.35031 13.5308 4.69781 13.1347C4.69781 13.1347 6.01509 11.0251 4.00281 9.79651C4.00281 9.79651 2.55622 8.8104 1.07731 10.0956C1.07731 10.0956 -0.555145 11.5747 1.07731 13.4338C1.07731 13.4338 1.45714 13.943 2.37843 14.1774C2.37843 14.1774 2.91989 14.1936 3.0007 14.7836L7.73645 28.5406L10.371 36.2597C10.371 36.2597 10.6296 37.1973 10.7832 37.3266C10.7832 37.3266 11.2115 37.7873 12.6581 38.2481C12.6581 38.2481 16.0442 39.9293 20.3274 39.412C20.3274 39.412 23.1721 39.1453 25.7743 37.9005L26.1864 37.6661C26.1864 37.6661 26.3966 37.5853 26.5663 36.9063L29.2332 28.9771L32.1263 20.87L33.8234 15.899L34.1709 15.0423C34.1709 15.0423 34.3649 14.5169 34.9468 14.3876C34.9468 14.3876 36.7408 14.0562 36.7247 11.8576C36.7408 11.8576 36.5954 9.17413 33.7184 9.53786ZM20.788 36.68C20.788 36.68 16.3109 37.4236 13.7329 35.7747C13.7329 35.7747 12.5126 35.1362 12.9086 33.5358C12.9086 33.5358 13.1995 32.7841 14.3067 32.388C14.3067 32.388 16.1169 31.3372 20.6102 31.7656C20.6102 31.7656 24.2146 32.1779 24.2307 34.0692C24.2388 34.0773 24.8692 36.0576 20.788 36.68Z" fill="url(#paint0_linear_1_13)" stroke="url(#paint1_linear_1_13)" stroke-width="0.0808283" stroke-miterlimit="10"/>
<defs>
<linearGradient id="paint0_linear_1_13" x1="8.99926" y1="16.7257" x2="33.0843" y2="25.1965" gradientUnits="userSpaceOnUse">
<stop offset="0.12" stop-color="#F3DFBD"/>
<stop offset="0.257" stop-color="#F0DBB9"/>
<stop offset="0.382" stop-color="#E7CFAC"/>
<stop offset="0.503" stop-color="#D9BA96"/>
<stop offset="0.62" stop-color="#C69F7A"/>
<stop offset="0.691" stop-color="#B98B67"/>
</linearGradient>
<linearGradient id="paint1_linear_1_13" x1="-0.587632" y1="16.5957" x2="34.8535" y2="22.921" gradientUnits="userSpaceOnUse">
<stop stop-color="#E8C798"/>
<stop offset="0.139" stop-color="#E8C89B"/>
<stop offset="0.241" stop-color="#EBCDA4"/>
<stop offset="0.316" stop-color="#EDD3B0"/>
<stop offset="0.399" stop-color="#ECD0A9"/>
<stop offset="0.482" stop-color="#E9CA9D"/>
<stop offset="0.714" stop-color="#E7C89A"/>
<stop offset="0.749" stop-color="#EFD8B7"/>
<stop offset="0.784" stop-color="#F5E5CF"/>
<stop offset="0.821" stop-color="#FAEFE0"/>
<stop offset="0.86" stop-color="#FDF5EA"/>
<stop offset="0.901" stop-color="#FEF7EE"/>
</linearGradient>
</defs>
</svg>
