<svg width="18" height="18" viewBox="0 0 18 18" fill="none" xmlns="http://www.w3.org/2000/svg">
<path d="M9 17.77L1.56 10.33C-0.480001 8.29002 -0.480001 4.93002 1.56 2.89002C2.52 1.93002 3.84 1.33002 5.28 1.33002C6.72 1.33002 7.92 1.93002 9 2.89002V3.01002C9.96 2.05002 11.28 1.45002 12.72 1.45002C14.16 1.45002 15.36 2.05002 16.44 3.01002C18.48 5.05002 18.48 8.41002 16.44 10.45L9 17.77ZM5.28 3.85002C4.56 3.85002 3.84 4.09002 3.36 4.69002C2.28 5.77002 2.28 7.57002 3.36 8.65002L9 14.41L14.64 8.65002C15.72 7.57002 15.72 5.77002 14.64 4.69002C13.68 3.61002 11.76 3.61002 10.8 4.69002L9 6.49002L7.2 4.69002C6.72 4.09002 6 3.85002 5.28 3.85002Z" fill="white"/>
</svg>
