<svg width="17" height="17" viewBox="0 0 17 17" fill="none" xmlns="http://www.w3.org/2000/svg">
<path d="M14.65 6.67598C14.65 10.068 12.474 12.8093 9.45534 12.8093C8.44201 12.8093 7.48201 12.2866 7.16201 11.6786C7.16201 11.6786 6.66067 13.556 6.53267 14.0253C6.33001 14.7826 5.83934 15.7 5.44467 16.3506C5.41267 16.404 5.38067 16.468 5.33801 16.5213C5.31667 16.5533 5.29534 16.5746 5.28467 16.6066C5.15667 16.7666 5.01801 16.916 4.86867 16.98C4.86867 16.98 4.69801 16.8413 4.60201 16.3613C4.60201 16.3293 4.58067 16.2866 4.58067 16.2546C4.57001 16.1586 4.55934 16.052 4.54867 15.9346C4.54867 15.9346 4.54867 15.9346 4.54867 15.924C4.48467 15.1773 4.46334 14.2386 4.62334 13.5346C4.80467 12.7666 5.79667 8.63865 5.79667 8.63865C5.79667 8.63865 5.50867 8.04131 5.50867 7.16665C5.50867 5.79065 6.31934 4.77731 7.32201 4.77731C8.17534 4.77731 8.59134 5.40665 8.59134 6.16398C8.59134 7.00665 8.04734 8.27598 7.75934 9.44931C7.52467 10.4306 8.26067 11.2306 9.24201 11.2306C11.0233 11.2306 12.3887 9.38531 12.3887 6.71865C12.3887 4.36131 10.6607 2.70798 8.20734 2.70798C5.35934 2.70798 3.68467 4.80931 3.68467 6.98531C3.68467 7.82798 4.01534 8.74531 4.43134 9.23598C4.50601 9.33198 4.51667 9.41731 4.49534 9.51331C4.42067 9.82265 4.25001 10.4946 4.21801 10.6333C4.17534 10.8146 4.07934 10.8466 3.88734 10.7613C2.62867 10.1853 1.85001 8.39331 1.85001 6.94265C1.85001 3.83865 4.14334 0.97998 8.47401 0.97998C11.9513 0.97998 14.65 3.41198 14.65 6.67598Z" fill="#127749"/>
</svg>
