<svg width="15" height="18" viewBox="0 0 15 18" fill="none" xmlns="http://www.w3.org/2000/svg">
<path d="M7.25362 0C3.22383 0 0 3.08571 0 6.94286C0 8.35714 0.940285 10.2857 2.28355 12.0857C4.5671 15.0429 7.25362 18 7.25362 18C7.25362 18 9.94015 14.9143 12.2237 12.0857C13.4326 10.2857 14.5072 8.35714 14.5072 6.94286C14.5072 3.08571 11.2834 0 7.25362 0ZM7.25362 10.1571C5.37305 10.1571 3.89546 8.61429 3.89546 6.94286C3.89546 5.14286 5.37305 3.72857 7.25362 3.72857C9.13419 3.72857 10.6118 5.14286 10.6118 6.94286C10.6118 8.74286 9.13419 10.1571 7.25362 10.1571Z" fill="white"/>
</svg>
