<svg width="87" height="17" viewBox="0 0 87 17" fill="none" xmlns="http://www.w3.org/2000/svg">
<path d="M16.6088 14.7782L15.6767 11.9818C15.253 10.7107 14.9141 10.2023 14.2361 9.52437C13.8124 9.10068 13.1345 8.9312 12.6261 8.76172C14.4056 8.5075 15.7614 6.89746 15.7614 5.03321C15.7614 2.99947 14.0667 1.30469 12.0329 1.30469H11.9482H6.27067H2.88111H0.847373V2.40629H2.88111V14.7782H0.762634V15.8798H6.18593H8.30441V14.7782H6.27067V8.84646H7.88071C7.96545 8.84646 7.96545 8.84646 8.05019 8.84646H8.38915C8.89758 8.84646 9.32128 8.9312 9.74497 9.01594C10.0839 9.10068 10.5076 9.27016 10.7618 9.43964C11.1008 9.69385 11.5245 10.0328 11.8634 10.5412C11.9482 10.7107 12.0329 10.8802 12.1177 10.9649C12.7108 12.1513 13.1345 13.7613 13.5582 15.7951H16.1004H18.3884V14.6935L16.6088 14.7782ZM9.82971 7.74486H6.27067V2.40629H9.82971C11.355 2.49103 12.5414 3.5079 12.5414 5.03321C12.5414 6.55851 11.355 7.66012 9.82971 7.74486Z" fill="#006039"/>
<path d="M27.0315 0.795898C22.6251 0.795898 19.1508 4.35494 19.1508 8.59189C19.1508 12.8288 22.7098 16.3879 27.0315 16.3879C31.4379 16.3879 34.9122 12.8288 34.9122 8.59189C34.9122 4.35494 31.4379 0.795898 27.0315 0.795898ZM30.3363 13.0831C30.0821 13.422 29.7431 13.761 29.4042 14.0152C28.811 14.4389 28.1331 14.7778 27.4552 14.7778C27.2857 14.7778 27.201 14.7778 27.0315 14.7778C26.862 14.7778 26.7773 14.7778 26.6078 14.7778C25.9299 14.7778 25.252 14.4389 24.6588 14.0152C24.3198 13.761 23.9809 13.422 23.7267 13.0831C22.8793 11.9815 22.3708 10.3714 22.3708 8.59189C22.3708 6.89711 22.7945 5.45654 23.5572 4.2702C23.9809 3.50755 24.5741 2.91437 25.4214 2.57542C25.4214 2.57542 25.5062 2.57542 25.5062 2.49068C25.5909 2.40594 25.6757 2.40594 25.8451 2.40594C26.1841 2.3212 26.6078 2.23646 26.9467 2.23646C27.3704 2.23646 27.7094 2.3212 28.0484 2.40594C28.1331 2.40594 28.3026 2.49068 28.3873 2.49068C28.3873 2.49068 28.472 2.49068 28.472 2.57542C29.2347 2.91437 29.9126 3.50755 30.3363 4.2702C31.099 5.3718 31.5227 6.89711 31.5227 8.59189C31.6921 10.3714 31.1837 11.9815 30.3363 13.0831Z" fill="#006039"/>
<path d="M50.5887 10.2023H49.4871V12.4055C49.4871 13.7613 48.3855 14.7782 47.0296 14.7782H43.6401H42.369V2.40629H44.4875V1.30469H42.369H42.1148H36.861V2.40629H38.9794V14.7782H36.861V15.8798H49.4871H50.4192H50.5039H50.5887V12.3208V10.2023Z" fill="#006039"/>
<path d="M67.3668 1.38867H67.2821H63.8925H52.9612V2.49028H55.0797V14.8622H52.9612V15.9638H63.8925H66.35H67.2821H67.3668H67.4516V12.4047V10.7947H66.35V12.4895C66.35 13.8453 65.2483 14.8622 63.8925 14.8622H59.9945H58.4692H58.3845V8.93044V8.67623H59.4861H60.164C61.1809 8.67623 61.9435 9.52362 61.9435 10.4557V11.0489V11.3031H62.9604V11.2184V8.67623V7.7441V5.28667V5.20193H61.9435V5.87984C61.9435 6.89671 61.1809 7.57462 60.164 7.57462H59.4861H58.8082H58.3845V2.3208H58.4692H61.6046C61.6046 2.3208 61.6046 2.3208 61.6893 2.3208H63.8925C65.2483 2.3208 66.2652 3.42241 66.35 4.69349V6.21879H67.4516V4.77823L67.3668 1.38867Z" fill="#006039"/>
<path d="M86.2634 14.8629C85.2465 14.8629 84.9923 14.524 84.1449 13.5918L79.3148 7.57538L82.5348 3.76212C83.3822 2.74525 83.6365 2.40629 84.7381 2.40629H85.416H85.5855V1.30469H85.416H82.1959H82.0264H79.7385H79.6537V2.40629H79.8232H81.0095C81.2638 2.40629 81.518 2.66051 81.518 2.91473C81.518 2.99947 81.518 3.08421 81.4332 3.16895L78.6369 6.55851L76.2642 3.84686L75.8405 3.25368C75.7557 3.16895 75.7557 3.08421 75.7557 2.91473C75.7557 2.66051 76.0099 2.40629 76.2642 2.40629H77.5352V1.30469H75.2473H71.9425H70.163V2.40629H70.5019C71.434 2.49103 71.6883 2.74525 72.4509 3.59264L76.6879 8.9312L72.8746 13.5071C72.0272 14.524 71.773 14.8629 70.6714 14.8629H69.9935H69.7393V15.9645H69.9935H73.6373H73.8915H75.8405H76.0947V14.8629H75.8405H74.4846C74.2304 14.8629 73.9762 14.6087 73.9762 14.3545C73.9762 14.2698 74.0609 14.1003 74.0609 14.0155L77.4505 9.94807L80.2469 13.5071L80.6706 14.0155C80.7553 14.1003 80.7553 14.185 80.7553 14.3545C80.7553 14.6087 80.5011 14.8629 80.2469 14.8629H78.8911V15.9645H86.7718V14.8629H86.2634Z" fill="#006039"/>
</svg>
