<svg width="17" height="17" viewBox="0 0 17 17" fill="none" xmlns="http://www.w3.org/2000/svg">
<path d="M8.85666 16.8701C6.50999 16.8701 4.58999 16.0168 3.41666 14.5235C2.34999 13.1368 1.70999 11.2168 1.70999 8.87012C1.70999 6.52345 2.24332 4.60345 3.41666 3.21678C4.58999 1.72345 6.40332 0.870117 8.85666 0.870117C10.67 0.870117 12.27 1.40345 13.4433 2.25678C14.51 3.11012 15.3633 4.39012 15.79 5.88345L14.4033 6.31012C13.6567 3.64345 11.8433 2.36345 8.85666 2.25678C6.93666 2.25678 5.44332 2.89678 4.48332 4.07012C3.62999 5.13678 3.09666 6.73678 3.09666 8.87012C3.09666 10.8968 3.52332 12.4968 4.48332 13.6701C5.44332 14.8435 6.93666 15.4835 8.85666 15.4835C10.5633 15.4835 11.7367 15.0568 12.6967 14.0968C13.7633 13.0301 13.7633 11.7501 13.4433 10.8968C13.23 10.4701 12.91 10.0435 12.3767 9.72345C12.27 10.5768 11.95 11.3235 11.5233 11.8568C10.8833 12.6035 10.1367 13.0301 9.06999 13.0301C8.21666 13.0301 7.46999 12.9235 6.93666 12.4968C6.18999 12.0701 5.76332 11.3235 5.76332 10.4701C5.76332 9.72345 6.08332 8.97678 6.61666 8.44345C7.25666 7.91012 8.00332 7.59012 8.96332 7.59012C9.70999 7.59012 10.35 7.59012 10.99 7.59012C10.99 7.05678 10.7767 6.73678 10.4567 6.41678C10.1367 5.99012 9.60332 5.77678 8.85666 5.77678C8.32332 5.77678 7.57666 5.88345 7.04333 6.63012L5.86999 5.88345C6.50999 4.92345 7.57666 4.39012 8.85666 4.39012C10.99 4.39012 12.27 5.67012 12.3767 8.01678C12.3767 8.01678 12.4833 8.01678 12.59 8.01678C13.55 8.44345 14.2967 9.19012 14.7233 10.0435C15.2567 11.2168 15.2567 13.2435 13.6567 14.8435C12.3767 16.0168 10.8833 16.5501 8.85666 16.6568V16.8701ZM9.49666 9.08345C9.28332 9.08345 9.17666 9.08345 8.96332 9.08345C7.78999 9.08345 6.93666 9.72345 7.04333 10.4701C7.04333 11.3235 8.00332 11.6435 8.85666 11.6435C9.70999 11.6435 10.7767 11.3235 10.8833 9.19012C10.4567 9.19012 9.92333 9.08345 9.38999 9.08345H9.49666Z" fill="#127749"/>
</svg>
