<svg width="16" height="17" viewBox="0 0 16 17" fill="none" xmlns="http://www.w3.org/2000/svg">
<path d="M14.4 6.67647C14.4 10.0685 12.224 12.8098 9.20534 12.8098C8.19201 12.8098 7.23201 12.2871 6.91201 11.6791C6.91201 11.6791 6.41067 13.5565 6.28267 14.0258C6.08001 14.7831 5.58934 15.7005 5.19467 16.3511C5.16267 16.4045 5.13067 16.4685 5.08801 16.5218C5.06667 16.5538 5.04534 16.5751 5.03467 16.6071C4.90667 16.7671 4.76801 16.9165 4.61867 16.9805C4.61867 16.9805 4.44801 16.8418 4.35201 16.3618C4.35201 16.3298 4.33067 16.2871 4.33067 16.2551C4.32001 16.1591 4.30934 16.0525 4.29867 15.9351C4.29867 15.9351 4.29867 15.9351 4.29867 15.9245C4.23467 15.1778 4.21334 14.2391 4.37334 13.5351C4.55467 12.7671 5.54667 8.63914 5.54667 8.63914C5.54667 8.63914 5.25867 8.0418 5.25867 7.16714C5.25867 5.79114 6.06934 4.7778 7.07201 4.7778C7.92534 4.7778 8.34134 5.40714 8.34134 6.16447C8.34134 7.00714 7.79734 8.27647 7.50934 9.4498C7.27467 10.4311 8.01067 11.2311 8.99201 11.2311C10.7733 11.2311 12.1387 9.3858 12.1387 6.71914C12.1387 4.3618 10.4107 2.70847 7.95734 2.70847C5.10934 2.70847 3.43467 4.8098 3.43467 6.9858C3.43467 7.82847 3.76534 8.7458 4.18134 9.23647C4.25601 9.33247 4.26667 9.4178 4.24534 9.5138C4.17067 9.82314 4.00001 10.4951 3.96801 10.6338C3.92534 10.8151 3.82934 10.8471 3.63734 10.7618C2.37867 10.1858 1.60001 8.3938 1.60001 6.94314C1.60001 3.83914 3.89334 0.980469 8.22401 0.980469C11.7013 0.980469 14.4 3.41247 14.4 6.67647Z" fill="#127749"/>
</svg>
